<svg width="99" height="16" viewBox="0 0 99 16" fill="none" xmlns="http://www.w3.org/2000/svg">
<path d="M9.21733 5C9.17756 4.50284 8.99112 4.11506 8.65803 3.83665C8.3299 3.55824 7.83026 3.41903 7.15909 3.41903C6.73153 3.41903 6.38104 3.47124 6.1076 3.57564C5.83913 3.67507 5.64027 3.81179 5.51101 3.98579C5.38175 4.1598 5.31463 4.35866 5.30966 4.58239C5.29972 4.76633 5.33203 4.93288 5.40661 5.08203C5.48615 5.22621 5.61044 5.35795 5.77947 5.47727C5.94851 5.59162 6.16477 5.69602 6.42827 5.79048C6.69176 5.88494 7.00497 5.96946 7.3679 6.04403L8.62074 6.3125C9.46591 6.49148 10.1893 6.72763 10.7908 7.02095C11.3924 7.31428 11.8846 7.6598 12.2674 8.05753C12.6502 8.45028 12.9311 8.89276 13.1101 9.38494C13.294 9.87713 13.3885 10.4141 13.3935 10.9957C13.3885 12 13.1374 12.8501 12.6403 13.5462C12.1431 14.2422 11.4322 14.7717 10.5075 15.1346C9.58771 15.4975 8.48153 15.679 7.18892 15.679C5.86151 15.679 4.70313 15.4826 3.71378 15.0898C2.7294 14.6971 1.96378 14.093 1.4169 13.2777C0.875 12.4574 0.601563 11.4084 0.596591 10.1307H4.53409C4.55895 10.598 4.67578 10.9908 4.88459 11.3089C5.0934 11.6271 5.38672 11.8683 5.76456 12.0323C6.14737 12.1964 6.60227 12.2784 7.12926 12.2784C7.57173 12.2784 7.94212 12.2237 8.24041 12.1143C8.53871 12.005 8.76492 11.8533 8.91903 11.6594C9.07315 11.4656 9.1527 11.2443 9.15767 10.9957C9.1527 10.7621 9.07564 10.5582 8.92649 10.3842C8.78232 10.2053 8.54368 10.0462 8.21058 9.90696C7.87749 9.76278 7.42756 9.62855 6.8608 9.50426L5.33949 9.17614C3.98722 8.88281 2.92081 8.39311 2.14027 7.70703C1.3647 7.01598 0.979403 6.07386 0.984375 4.88068C0.979403 3.91122 1.23793 3.06357 1.75994 2.33771C2.28693 1.60689 3.01527 1.03764 3.94496 0.629971C4.87962 0.222301 5.95099 0.0184653 7.15909 0.0184653C8.39205 0.0184653 9.45845 0.224786 10.3583 0.637429C11.2582 1.05007 11.9517 1.63175 12.4389 2.38246C12.9311 3.1282 13.1797 4.00071 13.1847 5H9.21733ZM14.9707 15.5V0.227272H21.563C22.6966 0.227272 23.6884 0.450994 24.5385 0.898438C25.3887 1.34588 26.0499 1.97479 26.5222 2.78516C26.9945 3.59553 27.2306 4.54261 27.2306 5.62642C27.2306 6.72017 26.987 7.66726 26.4998 8.46768C26.0176 9.26811 25.339 9.88459 24.464 10.3171C23.5939 10.7496 22.5772 10.9659 21.4139 10.9659H17.4764V7.74432H20.5787C21.0659 7.74432 21.481 7.6598 21.824 7.49077C22.1721 7.31676 22.438 7.07067 22.622 6.75249C22.8109 6.4343 22.9054 6.05895 22.9054 5.62642C22.9054 5.18892 22.8109 4.81605 22.622 4.50781C22.438 4.1946 22.1721 3.95597 21.824 3.7919C21.481 3.62287 21.0659 3.53835 20.5787 3.53835H19.117V15.5H14.9707ZM30.8121 15.5H26.3376L31.3788 0.227272H37.0464L42.0876 15.5H37.6132L34.2723 4.43324H34.153L30.8121 15.5ZM29.9768 9.47443H38.3888V12.5767H29.9768V9.47443ZM57.0993 5.95455H52.8934C52.8635 5.60653 52.784 5.29084 52.6547 5.00746C52.5305 4.72408 52.3564 4.48047 52.1327 4.27663C51.914 4.06783 51.648 3.90874 51.3348 3.79936C51.0216 3.68501 50.6661 3.62784 50.2684 3.62784C49.5724 3.62784 48.9832 3.79687 48.501 4.13494C48.0237 4.47301 47.6608 4.95774 47.4122 5.58913C47.1686 6.22053 47.0468 6.97869 47.0468 7.86364C47.0468 8.7983 47.1711 9.58132 47.4197 10.2127C47.6732 10.8391 48.0386 11.3114 48.5159 11.6296C48.9932 11.9428 49.5674 12.0994 50.2385 12.0994C50.6214 12.0994 50.9644 12.0522 51.2677 11.9577C51.5709 11.8583 51.8344 11.7166 52.0582 11.5327C52.2819 11.3487 52.4633 11.1275 52.6025 10.869C52.7467 10.6055 52.8437 10.3097 52.8934 9.98153L57.0993 10.0114C57.0496 10.6577 56.8682 11.3164 56.555 11.9876C56.2417 12.6538 55.7968 13.2702 55.2201 13.837C54.6483 14.3988 53.9399 14.8512 53.0947 15.1942C52.2496 15.5373 51.2677 15.7088 50.1491 15.7088C48.7471 15.7088 47.4893 15.408 46.3756 14.8065C45.267 14.2049 44.3895 13.32 43.7432 12.1516C43.1018 10.9833 42.7812 9.55398 42.7812 7.86364C42.7812 6.16335 43.1093 4.73153 43.7655 3.56818C44.4218 2.39986 45.3067 1.5174 46.4204 0.920809C47.534 0.319247 48.7769 0.0184653 50.1491 0.0184653C51.1135 0.0184653 52.001 0.150212 52.8113 0.413706C53.6217 0.677201 54.3327 1.0625 54.9442 1.5696C55.5557 2.07173 56.0479 2.6907 56.4207 3.42649C56.7936 4.16229 57.0198 5.00497 57.0993 5.95455ZM58.9805 15.5V0.227272H69.9876V3.56818H63.1268V6.19318H69.4208V9.53409H63.1268V12.1591H69.9577V15.5H58.9805ZM72.0439 15.5V0.227272H78.6363C79.7698 0.227272 80.7616 0.433593 81.6118 0.846235C82.4619 1.25888 83.1231 1.85298 83.5954 2.62855C84.0677 3.40412 84.3039 4.33381 84.3039 5.41761C84.3039 6.51136 84.0603 7.43359 83.5731 8.1843C83.0908 8.93501 82.4122 9.50178 81.5372 9.88459C80.6672 10.2674 79.6505 10.4588 78.4871 10.4588H74.5496V7.23722H77.6519C78.1391 7.23722 78.5542 7.17756 78.8973 7.05824C79.2453 6.93395 79.5113 6.73757 79.6952 6.4691C79.8841 6.20064 79.9786 5.85014 79.9786 5.41761C79.9786 4.98011 79.8841 4.62465 79.6952 4.35121C79.5113 4.0728 79.2453 3.86896 78.8973 3.7397C78.5542 3.60547 78.1391 3.53835 77.6519 3.53835H76.1903V15.5H72.0439ZM80.9928 8.49006L84.811 15.5H80.3067L76.578 8.49006H80.9928ZM94.3042 5C94.2645 4.50284 94.078 4.11506 93.7449 3.83665C93.4168 3.55824 92.9172 3.41903 92.246 3.41903C91.8184 3.41903 91.468 3.47124 91.1945 3.57564C90.926 3.67507 90.7272 3.81179 90.5979 3.98579C90.4687 4.1598 90.4015 4.35866 90.3966 4.58239C90.3866 4.76633 90.4189 4.93288 90.4935 5.08203C90.5731 5.22621 90.6974 5.35795 90.8664 5.47727C91.0354 5.59162 91.2517 5.69602 91.5152 5.79048C91.7787 5.88494 92.0919 5.96946 92.4548 6.04403L93.7077 6.3125C94.5528 6.49148 95.2762 6.72763 95.8778 7.02095C96.4793 7.31428 96.9715 7.6598 97.3543 8.05753C97.7371 8.45028 98.018 8.89276 98.197 9.38494C98.3809 9.87713 98.4754 10.4141 98.4804 10.9957C98.4754 12 98.2243 12.8501 97.7272 13.5462C97.23 14.2422 96.5191 14.7717 95.5944 15.1346C94.6746 15.4975 93.5684 15.679 92.2758 15.679C90.9484 15.679 89.79 15.4826 88.8007 15.0898C87.8163 14.6971 87.0507 14.093 86.5038 13.2777C85.9619 12.4574 85.6885 11.4084 85.6835 10.1307H89.621C89.6459 10.598 89.7627 10.9908 89.9715 11.3089C90.1803 11.6271 90.4736 11.8683 90.8515 12.0323C91.2343 12.1964 91.6892 12.2784 92.2162 12.2784C92.6586 12.2784 93.029 12.2237 93.3273 12.1143C93.6256 12.005 93.8518 11.8533 94.0059 11.6594C94.1601 11.4656 94.2396 11.2443 94.2446 10.9957C94.2396 10.7621 94.1626 10.5582 94.0134 10.3842C93.8692 10.2053 93.6306 10.0462 93.2975 9.90696C92.9644 9.76278 92.5145 9.62855 91.9477 9.50426L90.4264 9.17614C89.0741 8.88281 88.0077 8.39311 87.2272 7.70703C86.4516 7.01598 86.0663 6.07386 86.0713 4.88068C86.0663 3.91122 86.3248 3.06357 86.8469 2.33771C87.3738 1.60689 88.1022 1.03764 89.0319 0.629971C89.9665 0.222301 91.0379 0.0184653 92.246 0.0184653C93.479 0.0184653 94.5454 0.224786 95.4452 0.637429C96.3451 1.05007 97.0386 1.63175 97.5258 2.38246C98.018 3.1282 98.2666 4.00071 98.2716 5H94.3042Z" fill="white"/>
</svg>
