<svg width="300" height="49" viewBox="0 0 300 49" fill="none" xmlns="http://www.w3.org/2000/svg">
<path d="M27.1222 16C27.0009 14.4848 26.4328 13.303 25.4176 12.4545C24.4176 11.6061 22.8949 11.1818 20.8494 11.1818C19.5464 11.1818 18.4782 11.3409 17.6449 11.6591C16.8267 11.9621 16.2206 12.3788 15.8267 12.9091C15.4328 13.4394 15.2282 14.0455 15.2131 14.7273C15.1828 15.2879 15.2813 15.7955 15.5085 16.25C15.7509 16.6894 16.1297 17.0909 16.6449 17.4545C17.16 17.803 17.8191 18.1212 18.6222 18.4091C19.4252 18.697 20.3797 18.9545 21.4858 19.1818L25.304 20C27.8797 20.5455 30.0843 21.2652 31.9176 22.1591C33.7509 23.053 35.2509 24.1061 36.4176 25.3182C37.5843 26.5152 38.4403 27.8636 38.9858 29.3636C39.5464 30.8636 39.8343 32.5 39.8494 34.2727C39.8343 37.3333 39.0691 39.9242 37.554 42.0455C36.0388 44.1667 33.8722 45.7803 31.054 46.8864C28.2509 47.9924 24.8797 48.5455 20.9403 48.5455C16.8949 48.5455 13.3646 47.947 10.3494 46.75C7.34943 45.553 5.0161 43.7121 3.34943 41.2273C1.69792 38.7273 0.864583 35.5303 0.849432 31.6364H12.8494C12.9252 33.0606 13.2813 34.2576 13.9176 35.2273C14.554 36.197 15.4479 36.9318 16.5994 37.4318C17.7661 37.9318 19.1525 38.1818 20.7585 38.1818C22.107 38.1818 23.2358 38.0152 24.1449 37.6818C25.054 37.3485 25.7434 36.8864 26.2131 36.2955C26.6828 35.7045 26.9252 35.0303 26.9403 34.2727C26.9252 33.5606 26.6903 32.9394 26.2358 32.4091C25.7964 31.8636 25.0691 31.3788 24.054 30.9545C23.0388 30.5152 21.6676 30.1061 19.9403 29.7273L15.304 28.7273C11.1828 27.8333 7.93277 26.3409 5.55398 24.25C3.19034 22.1439 2.0161 19.2727 2.03125 15.6364C2.0161 12.6818 2.80398 10.0985 4.39489 7.88636C6.00095 5.65909 8.22064 3.92424 11.054 2.68182C13.9025 1.43939 17.1676 0.81818 20.8494 0.81818C24.607 0.81818 27.857 1.44697 30.5994 2.70454C33.3419 3.96212 35.4555 5.73485 36.9403 8.02273C38.4403 10.2955 39.1979 12.9545 39.2131 16H27.1222ZM44.6562 48V1.45454H64.7472C68.2017 1.45454 71.2244 2.13636 73.8153 3.5C76.4063 4.86363 78.4214 6.7803 79.8608 9.25C81.3002 11.7197 82.0199 14.6061 82.0199 17.9091C82.0199 21.2424 81.2775 24.1288 79.7926 26.5682C78.3229 29.0076 76.2547 30.8864 73.5881 32.2045C70.9366 33.5227 67.8381 34.1818 64.2926 34.1818H52.2926V24.3636H61.7472C63.232 24.3636 64.4972 24.1061 65.5426 23.5909C66.6032 23.0606 67.4138 22.3106 67.9744 21.3409C68.5502 20.3712 68.8381 19.2273 68.8381 17.9091C68.8381 16.5758 68.5502 15.4394 67.9744 14.5C67.4138 13.5455 66.6032 12.8182 65.5426 12.3182C64.4972 11.803 63.232 11.5455 61.7472 11.5455H57.2926V48H44.6562ZM92.9347 48H79.2983L94.6619 1.45454H111.935L127.298 48H113.662L103.48 14.2727H103.116L92.9347 48ZM90.3892 29.6364H116.026V39.0909H90.3892V29.6364ZM173.048 18.9091H160.23C160.139 17.8485 159.897 16.8864 159.503 16.0227C159.124 15.1591 158.594 14.4167 157.912 13.7955C157.245 13.1591 156.435 12.6742 155.48 12.3409C154.526 11.9924 153.442 11.8182 152.23 11.8182C150.109 11.8182 148.313 12.3333 146.844 13.3636C145.389 14.3939 144.283 15.8712 143.526 17.7955C142.783 19.7197 142.412 22.0303 142.412 24.7273C142.412 27.5758 142.791 29.9621 143.548 31.8864C144.321 33.7955 145.435 35.2348 146.889 36.2045C148.344 37.1591 150.094 37.6364 152.139 37.6364C153.306 37.6364 154.351 37.4924 155.276 37.2045C156.2 36.9015 157.003 36.4697 157.685 35.9091C158.366 35.3485 158.92 34.6742 159.344 33.8864C159.783 33.0833 160.079 32.1818 160.23 31.1818L173.048 31.2727C172.897 33.2424 172.344 35.25 171.389 37.2955C170.435 39.3258 169.079 41.2045 167.321 42.9318C165.579 44.6439 163.42 46.0227 160.844 47.0682C158.268 48.1136 155.276 48.6364 151.866 48.6364C147.594 48.6364 143.76 47.7197 140.366 45.8864C136.988 44.053 134.313 41.3561 132.344 37.7955C130.389 34.2348 129.412 29.8788 129.412 24.7273C129.412 19.5455 130.412 15.1818 132.412 11.6364C134.412 8.07576 137.109 5.38636 140.503 3.56818C143.897 1.73485 147.685 0.81818 151.866 0.81818C154.806 0.81818 157.51 1.21969 159.98 2.02272C162.45 2.82576 164.616 4 166.48 5.54545C168.344 7.07576 169.844 8.96212 170.98 11.2045C172.116 13.447 172.806 16.0152 173.048 18.9091ZM178.781 48V1.45454H212.327V11.6364H191.418V19.6364H210.599V29.8182H191.418V37.8182H212.236V48H178.781ZM218.594 48V1.45454H238.685C242.139 1.45454 245.162 2.08333 247.753 3.34091C250.344 4.59848 252.359 6.40909 253.798 8.77273C255.238 11.1364 255.957 13.9697 255.957 17.2727C255.957 20.6061 255.215 23.4167 253.73 25.7045C252.26 27.9924 250.192 29.7197 247.526 30.8864C244.874 32.053 241.776 32.6364 238.23 32.6364H226.23V22.8182H235.685C237.17 22.8182 238.435 22.6364 239.48 22.2727C240.541 21.8939 241.351 21.2955 241.912 20.4773C242.488 19.6591 242.776 18.5909 242.776 17.2727C242.776 15.9394 242.488 14.8561 241.912 14.0227C241.351 13.1742 240.541 12.553 239.48 12.1591C238.435 11.75 237.17 11.5455 235.685 11.5455H231.23V48H218.594ZM245.866 26.6364L257.503 48H243.776L232.412 26.6364H245.866ZM286.435 16C286.313 14.4848 285.745 13.303 284.73 12.4545C283.73 11.6061 282.207 11.1818 280.162 11.1818C278.859 11.1818 277.791 11.3409 276.957 11.6591C276.139 11.9621 275.533 12.3788 275.139 12.9091C274.745 13.4394 274.541 14.0455 274.526 14.7273C274.495 15.2879 274.594 15.7955 274.821 16.25C275.063 16.6894 275.442 17.0909 275.957 17.4545C276.473 17.803 277.132 18.1212 277.935 18.4091C278.738 18.697 279.692 18.9545 280.798 19.1818L284.616 20C287.192 20.5455 289.397 21.2652 291.23 22.1591C293.063 23.053 294.563 24.1061 295.73 25.3182C296.897 26.5152 297.753 27.8636 298.298 29.3636C298.859 30.8636 299.147 32.5 299.162 34.2727C299.147 37.3333 298.382 39.9242 296.866 42.0455C295.351 44.1667 293.185 45.7803 290.366 46.8864C287.563 47.9924 284.192 48.5455 280.253 48.5455C276.207 48.5455 272.677 47.947 269.662 46.75C266.662 45.553 264.329 43.7121 262.662 41.2273C261.01 38.7273 260.177 35.5303 260.162 31.6364H272.162C272.238 33.0606 272.594 34.2576 273.23 35.2273C273.866 36.197 274.76 36.9318 275.912 37.4318C277.079 37.9318 278.465 38.1818 280.071 38.1818C281.42 38.1818 282.548 38.0152 283.457 37.6818C284.366 37.3485 285.056 36.8864 285.526 36.2955C285.995 35.7045 286.238 35.0303 286.253 34.2727C286.238 33.5606 286.003 32.9394 285.548 32.4091C285.109 31.8636 284.382 31.3788 283.366 30.9545C282.351 30.5152 280.98 30.1061 279.253 29.7273L274.616 28.7273C270.495 27.8333 267.245 26.3409 264.866 24.25C262.503 22.1439 261.329 19.2727 261.344 15.6364C261.329 12.6818 262.116 10.0985 263.707 7.88636C265.313 5.65909 267.533 3.92424 270.366 2.68182C273.215 1.43939 276.48 0.81818 280.162 0.81818C283.92 0.81818 287.17 1.44697 289.912 2.70454C292.654 3.96212 294.768 5.73485 296.253 8.02273C297.753 10.2955 298.51 12.9545 298.526 16H286.435Z" fill="white"/>
</svg>
